<svg width="22" height="23" viewBox="0 0 22 23" fill="none" xmlns="http://www.w3.org/2000/svg">
<path d="M1.33561 2.82856C1.67255 2.68135 1.90802 2.34516 1.90802 1.95397C1.90802 1.4271 1.4809 1 0.954016 1C0.427124 1 0 1.4271 0 1.95397C0 2.34516 0.235467 2.68134 0.572406 2.82855V19.7825C0.572406 19.9171 0.681527 20.0262 0.816176 20.0262H1.09186C1.22651 20.0262 1.33561 19.9171 1.33561 19.7825V2.82856Z" fill="black"/>
<path fill-rule="evenodd" clip-rule="evenodd" d="M8.75572 15.0614C5.83013 15.0614 4.22045 15.2317 2.70315 15.4923C2.55342 15.518 2.41602 15.4031 2.41602 15.2512V2.85643C2.41602 2.73363 2.50709 2.63004 2.62888 2.61436L2.92755 2.57569C4.36166 2.38948 6.12792 2.16016 8.41763 2.16016C10.3979 2.16016 12.0257 2.33988 13.4654 2.49884C14.6069 2.62485 15.6302 2.73783 16.617 2.73783C18.7147 2.73783 20.2299 2.65276 21.6679 2.48262C21.8137 2.46537 21.9424 2.5788 21.9424 2.72558V15.1557C21.9424 15.2695 21.8641 15.3684 21.752 15.3874C20.7624 15.5551 18.4319 15.639 16.617 15.639C15.7533 15.639 14.7062 15.525 13.5422 15.3983L13.5401 15.3981C12.0844 15.2397 10.4462 15.0614 8.75572 15.0614ZM12.8895 5.38658V8.21125C14.1541 8.34905 14.8418 8.41795 15.7713 8.41795V10.1509C14.9131 10.1509 14.055 10.0821 12.8895 9.94425V12.8067C12.4769 12.7315 12.206 12.6934 11.9868 12.6625L11.9855 12.6623C11.7604 12.6306 11.5898 12.6065 11.3758 12.5578C11.3647 12.317 11.3623 11.125 11.3636 9.77085C10.2033 9.66955 9.21677 9.66955 8.67085 9.66955V7.99925C8.76303 7.99925 8.85665 7.99915 8.95177 7.99895C9.66432 7.99775 10.4619 7.99645 11.3666 8.06035C11.3703 6.54778 11.3758 5.24076 11.3758 5.24076C11.7985 5.24076 12.8895 5.38658 12.8895 5.38658Z" fill="black"/>
</svg>
